<svg width="28" height="31" viewBox="0 0 28 31" fill="none" xmlns="http://www.w3.org/2000/svg">
<g filter="url(#filter0_d_3645_10)">
<mask id="path-1-outside-1_3645_10" maskUnits="userSpaceOnUse" x="3" y="-1" width="22" height="25" fill="black">
<rect fill="white" x="3" y="-1" width="22" height="25"/>
<path d="M22.3806 3.94321L22.2467 4.0027C21.4733 3.28876 20.5412 2.7186 19.4504 2.29222C18.3696 1.86583 17.1797 1.65264 15.8807 1.65264C14.6313 1.65264 13.486 1.85096 12.4449 2.2476C11.4037 2.63431 10.5063 3.19952 9.7527 3.94321C9.00901 4.6869 8.42894 5.59916 8.01247 6.67999C7.596 7.76082 7.38777 8.99038 7.38777 10.3687C7.38777 11.8858 7.58609 13.3038 7.98272 14.6226C8.37936 15.9315 8.96935 17.0669 9.7527 18.0287C10.5361 18.9905 11.5128 19.7491 12.6828 20.3044C13.8628 20.8498 15.2362 21.1224 16.8029 21.1224C17.3681 21.1224 17.9333 21.063 18.4985 20.944C19.0637 20.825 19.6041 20.6514 20.1197 20.4234C20.6453 20.1854 21.1361 19.9028 21.5922 19.5756C22.0583 19.2384 22.4797 18.8567 22.8565 18.4303L23.0201 18.5344L21.8302 21.5687C21.0865 21.8562 20.2635 22.0744 19.3612 22.2231C18.4688 22.3818 17.5664 22.4611 16.6541 22.4611C14.8197 22.4611 13.139 22.1983 11.6119 21.6728C10.0948 21.1373 8.78591 20.3837 7.68525 19.412C6.5945 18.4402 5.74174 17.2751 5.12695 15.9166C4.52209 14.5482 4.21965 13.0311 4.21965 11.3652C4.21965 10.4232 4.33864 9.49609 4.57662 8.58383C4.82452 7.67157 5.18149 6.80394 5.64754 5.98092C6.11358 5.1579 6.6887 4.4043 7.3729 3.7201C8.05709 3.02599 8.83549 2.42608 9.70808 1.92037C10.5906 1.41466 11.5574 1.02299 12.6085 0.745341C13.6695 0.457781 14.8148 0.314001 16.0443 0.314001C17.9581 0.314001 19.733 0.606519 21.3691 1.19156L22.3806 3.94321Z"/>
</mask>
<path d="M22.3806 3.94321L22.2467 4.0027C21.4733 3.28876 20.5412 2.7186 19.4504 2.29222C18.3696 1.86583 17.1797 1.65264 15.8807 1.65264C14.6313 1.65264 13.486 1.85096 12.4449 2.2476C11.4037 2.63431 10.5063 3.19952 9.7527 3.94321C9.00901 4.6869 8.42894 5.59916 8.01247 6.67999C7.596 7.76082 7.38777 8.99038 7.38777 10.3687C7.38777 11.8858 7.58609 13.3038 7.98272 14.6226C8.37936 15.9315 8.96935 17.0669 9.7527 18.0287C10.5361 18.9905 11.5128 19.7491 12.6828 20.3044C13.8628 20.8498 15.2362 21.1224 16.8029 21.1224C17.3681 21.1224 17.9333 21.063 18.4985 20.944C19.0637 20.825 19.6041 20.6514 20.1197 20.4234C20.6453 20.1854 21.1361 19.9028 21.5922 19.5756C22.0583 19.2384 22.4797 18.8567 22.8565 18.4303L23.0201 18.5344L21.8302 21.5687C21.0865 21.8562 20.2635 22.0744 19.3612 22.2231C18.4688 22.3818 17.5664 22.4611 16.6541 22.4611C14.8197 22.4611 13.139 22.1983 11.6119 21.6728C10.0948 21.1373 8.78591 20.3837 7.68525 19.412C6.5945 18.4402 5.74174 17.2751 5.12695 15.9166C4.52209 14.5482 4.21965 13.0311 4.21965 11.3652C4.21965 10.4232 4.33864 9.49609 4.57662 8.58383C4.82452 7.67157 5.18149 6.80394 5.64754 5.98092C6.11358 5.1579 6.6887 4.4043 7.3729 3.7201C8.05709 3.02599 8.83549 2.42608 9.70808 1.92037C10.5906 1.41466 11.5574 1.02299 12.6085 0.745341C13.6695 0.457781 14.8148 0.314001 16.0443 0.314001C17.9581 0.314001 19.733 0.606519 21.3691 1.19156L22.3806 3.94321Z" fill="white"/>
<path d="M22.3806 3.94321L22.7867 4.85702L23.6421 4.47683L23.3192 3.59821L22.3806 3.94321ZM22.2467 4.0027L21.5684 4.73751L22.0518 5.18366L22.6528 4.91651L22.2467 4.0027ZM19.4504 2.29222L19.0834 3.22245L19.0863 3.22358L19.4504 2.29222ZM12.4449 2.2476L12.7931 3.18505L12.8009 3.18208L12.4449 2.2476ZM9.7527 3.94321L9.05028 3.23142L9.0456 3.2361L9.7527 3.94321ZM7.98272 14.6226L7.02509 14.9106L7.0257 14.9126L7.98272 14.6226ZM12.6828 20.3044L12.2541 21.2079L12.2633 21.2121L12.6828 20.3044ZM20.1197 20.4234L20.5243 21.3379L20.5323 21.3343L20.1197 20.4234ZM21.5922 19.5756L22.1752 20.3881L22.1784 20.3858L21.5922 19.5756ZM22.8565 18.4303L23.3934 17.5866L22.6728 17.1281L22.1072 17.7681L22.8565 18.4303ZM23.0201 18.5344L23.9511 18.8995L24.2518 18.1329L23.557 17.6907L23.0201 18.5344ZM21.8302 21.5687L22.1909 22.5014L22.6008 22.3429L22.7612 21.9337L21.8302 21.5687ZM19.3612 22.2231L19.1985 21.2363L19.1861 21.2385L19.3612 22.2231ZM11.6119 21.6728L11.2791 22.6158L11.2865 22.6183L11.6119 21.6728ZM7.68525 19.412L7.02003 20.1586L7.0234 20.1616L7.68525 19.412ZM5.12695 15.9166L4.21229 16.3209L4.2159 16.3289L5.12695 15.9166ZM4.57662 8.58383L3.61157 8.32159L3.60901 8.33141L4.57662 8.58383ZM7.3729 3.7201L8.08002 4.42723L8.08507 4.4221L7.3729 3.7201ZM9.70808 1.92037L9.21089 1.05272L9.20666 1.05517L9.70808 1.92037ZM12.6085 0.745341L12.8639 1.7122L12.8701 1.71052L12.6085 0.745341ZM21.3691 1.19156L22.3077 0.846555L22.1463 0.407457L21.7058 0.249943L21.3691 1.19156ZM21.9744 3.0294L21.8406 3.08889L22.6528 4.91651L22.7867 4.85702L21.9744 3.0294ZM22.925 3.2679C22.0502 2.46043 21.0083 1.8275 19.8145 1.36085L19.0863 3.22358C20.0741 3.60969 20.8963 4.1171 21.5684 4.73751L22.925 3.2679ZM19.8174 1.36198C18.6067 0.884375 17.2905 0.652643 15.8807 0.652643V2.65264C17.0688 2.65264 18.1325 2.84729 19.0834 3.22245L19.8174 1.36198ZM15.8807 0.652643C14.5243 0.652643 13.2567 0.868225 12.0889 1.31311L12.8009 3.18208C13.7154 2.8337 14.7383 2.65264 15.8807 2.65264V0.652643ZM12.0967 1.31017C10.9294 1.74371 9.9096 2.38344 9.0503 3.23143L10.4551 4.65498C11.103 4.0156 11.878 3.52491 12.793 3.18502L12.0967 1.31017ZM9.0456 3.2361C8.19351 4.08819 7.54092 5.12254 7.07935 6.32043L8.9456 7.03954C9.31695 6.07577 9.82452 5.28561 10.4598 4.65031L9.0456 3.2361ZM7.07935 6.32043C6.61115 7.53551 6.38777 8.89027 6.38777 10.3687H8.38777C8.38777 9.0905 8.58086 7.98612 8.9456 7.03954L7.07935 6.32043ZM6.38777 10.3687C6.38777 11.9736 6.59767 13.4894 7.02509 14.9106L8.94035 14.3346C8.57451 13.1182 8.38777 11.7981 8.38777 10.3687H6.38777ZM7.0257 14.9126C7.4562 16.3333 8.10373 17.5875 8.97732 18.6602L10.5281 17.3972C9.83497 16.5462 9.30252 15.5297 8.93975 14.3326L7.0257 14.9126ZM8.97732 18.6602C9.85873 19.7424 10.9558 20.5917 12.2541 21.2078L13.1116 19.401C12.0698 18.9065 11.2134 18.2386 10.5281 17.3972L8.97732 18.6602ZM12.2633 21.2121C13.599 21.8295 15.1205 22.1224 16.8029 22.1224V20.1224C15.3518 20.1224 14.1267 19.8701 13.1024 19.3967L12.2633 21.2121ZM16.8029 22.1224C17.4388 22.1224 18.0731 22.0554 18.7045 21.9225L18.2925 19.9654C17.7935 20.0705 17.2974 20.1224 16.8029 20.1224V22.1224ZM18.7045 21.9225C19.3363 21.7895 19.9433 21.5949 20.5242 21.3379L19.7152 19.5088C19.2649 19.708 18.7911 19.8604 18.2925 19.9654L18.7045 21.9225ZM20.5323 21.3343C21.116 21.07 21.6641 20.7547 22.1752 20.3881L21.0093 18.763C20.6081 19.0509 20.1745 19.3008 19.7072 19.5124L20.5323 21.3343ZM22.1784 20.3858C22.7035 20.0059 23.1797 19.5747 23.6059 19.0925L22.1072 17.7681C21.7797 18.1387 21.4131 18.4709 21.0061 18.7653L22.1784 20.3858ZM22.3196 19.2739L22.4833 19.3781L23.557 17.6907L23.3934 17.5866L22.3196 19.2739ZM22.0892 18.1693L20.8993 21.2036L22.7612 21.9337L23.9511 18.8995L22.0892 18.1693ZM21.4696 20.636C20.7984 20.8955 20.0429 21.0972 19.1985 21.2364L19.5238 23.2098C20.4842 23.0515 21.3747 22.817 22.1909 22.5014L21.4696 20.636ZM19.1861 21.2385C18.3519 21.3869 17.5081 21.4611 16.6541 21.4611V23.4611C17.6247 23.4611 18.5856 23.3767 19.5362 23.2077L19.1861 21.2385ZM16.6541 21.4611C14.9156 21.4611 13.3465 21.2122 11.9374 20.7272L11.2865 22.6183C12.9314 23.1845 14.7238 23.4611 16.6541 23.4611V21.4611ZM11.9447 20.7298C10.5371 20.233 9.34267 19.5413 8.34709 18.6623L7.0234 20.1616C8.22915 21.2261 9.65255 22.0417 11.2791 22.6158L11.9447 20.7298ZM8.35045 18.6653C7.36634 17.7885 6.59635 16.7381 6.038 15.5043L4.2159 16.3289C4.88712 17.8121 5.82266 19.0919 7.02004 20.1586L8.35045 18.6653ZM6.04158 15.5123C5.49909 14.285 5.21965 12.9077 5.21965 11.3652H3.21965C3.21965 13.1545 3.54509 14.8114 4.21232 16.3209L6.04158 15.5123ZM5.21965 11.3652C5.21965 10.5085 5.32774 9.66617 5.54424 8.83626L3.60901 8.33141C3.34954 9.32602 3.21965 10.338 3.21965 11.3652H5.21965ZM5.54163 8.84606C5.76764 8.01434 6.09274 7.22414 6.51771 6.47367L4.77736 5.48817C4.27024 6.38373 3.8814 7.32881 3.61162 8.3216L5.54163 8.84606ZM6.51771 6.47367C6.93829 5.73093 7.4581 5.04911 8.08 4.42721L6.66579 3.01299C5.9193 3.75948 5.28887 4.58487 4.77736 5.48817L6.51771 6.47367ZM8.08507 4.4221C8.70446 3.79374 9.41143 3.2481 10.2095 2.78557L9.20666 1.05517C8.25954 1.60407 7.40972 2.25824 6.66072 3.0181L8.08507 4.4221ZM10.2053 2.78801C11.0068 2.32869 11.8916 1.96901 12.8639 1.71218L12.3531 -0.221497C11.2232 0.0769617 10.1744 0.500636 9.21089 1.05273L10.2053 2.78801ZM12.8701 1.71052C13.8364 1.44862 14.8928 1.314 16.0443 1.314V-0.685999C14.7367 -0.685999 13.5026 -0.533057 12.3469 -0.219838L12.8701 1.71052ZM16.0443 1.314C17.8549 1.314 19.5148 1.59049 21.0324 2.13317L21.7058 0.249943C19.9513 -0.377451 18.0612 -0.685999 16.0443 -0.685999V1.314ZM20.4305 1.53656L21.442 4.28821L23.3192 3.59821L22.3077 0.846555L20.4305 1.53656Z" fill="black" mask="url(#path-1-outside-1_3645_10)"/>
</g>
<defs>
<filter id="filter0_d_3645_10" x="0.219727" y="0.314453" width="26.8003" height="30.1465" filterUnits="userSpaceOnUse" color-interpolation-filters="sRGB">
<feFlood flood-opacity="0" result="BackgroundImageFix"/>
<feColorMatrix in="SourceAlpha" type="matrix" values="0 0 0 0 0 0 0 0 0 0 0 0 0 0 0 0 0 0 127 0" result="hardAlpha"/>
<feOffset dy="4"/>
<feGaussianBlur stdDeviation="2"/>
<feComposite in2="hardAlpha" operator="out"/>
<feColorMatrix type="matrix" values="0 0 0 0 0 0 0 0 0 0 0 0 0 0 0 0 0 0 0.25 0"/>
<feBlend mode="normal" in2="BackgroundImageFix" result="effect1_dropShadow_3645_10"/>
<feBlend mode="normal" in="SourceGraphic" in2="effect1_dropShadow_3645_10" result="shape"/>
</filter>
</defs>
</svg>
